<svg width="28" height="29" viewBox="0 0 28 29" fill="none" xmlns="http://www.w3.org/2000/svg">
<path d="M13.9199 28.3913L15.3343 27.5582C22.3424 26.2123 27.2931 19.0665 27.2931 12.5615L27.6146 2.08305C22.8568 2.08305 18.2597 1.60239 13.9199 0.256531C9.57997 1.60239 4.9829 2.08305 0.225098 2.08305L0.546578 12.5615C0.546578 19.0665 5.46511 26.2444 12.5054 27.5582L13.9199 28.3913Z" fill="white"/>
<path d="M0.45006 2.30718L0.771541 12.5613C0.771541 18.5856 5.27216 25.9558 12.5375 27.3337H12.5696L13.9198 28.1348L15.27 27.3337H15.3021C22.5674 25.9558 27.068 18.5856 27.068 12.5613L27.3895 2.30718C22.2459 2.27514 17.8418 1.69834 13.9519 0.480663C9.99781 1.69834 5.59363 2.27514 0.45006 2.30718ZM13.9198 28.6475L12.4089 27.7503C4.95069 26.3083 0.32148 18.7459 0.32148 12.5293L0 1.82652H0.22503C5.46504 1.82652 9.90138 1.21768 13.8555 0L13.9198 0L13.9841 0.0320442C17.9382 1.24972 22.3745 1.85856 27.6145 1.85856H27.8396L27.5181 12.5613C27.5181 18.7459 22.8889 26.3403 15.4307 27.7823L13.9198 28.6475Z" fill="#172751"/>
<path d="M13.0838 25.9865L12.7945 25.9224C9.90123 25.3776 7.20086 23.6152 5.20772 20.9876C3.31103 18.4881 2.21804 15.4119 2.21804 12.5599V12.5279L1.92871 3.68369C6.42933 3.55552 10.3513 3.01077 13.9197 1.95331C17.488 3.01077 21.41 3.55552 25.9106 3.68369L25.6534 12.4958V12.5279C25.6534 15.3798 24.5604 18.4561 22.6637 20.9555C20.6706 23.5831 17.9702 25.3456 15.077 25.8903L14.7876 25.9544L13.9518 26.4351L13.0838 25.9865Z" fill="#172751"/>
<path d="M25.7821 15.1891C25.6214 17.4002 23.7568 19.0344 21.6351 18.9063C21.5708 18.9063 21.5387 18.9063 21.4744 18.9063C19.1598 18.6499 17.6488 16.3107 18.1954 14.0035C19.0955 10.2543 17.8739 5.60792 15.0449 2.65985C20.8636 3.74935 25.75 9.61344 25.7821 15.1891Z" fill="#DB0032"/>
<path d="M16.974 3.94348C18.9028 6.92359 19.6743 10.7689 18.8707 14.1335C18.6456 15.0949 18.8385 16.0882 19.385 16.8893C19.8994 17.6264 20.6709 18.075 21.5389 18.1711C21.571 18.1711 21.6353 18.1711 21.6675 18.1711C22.5033 18.2352 23.307 17.9468 23.9499 17.402C24.625 16.8252 25.0108 16.0241 25.0751 15.1269C25.0429 10.5766 21.4425 5.80204 16.974 3.94348ZM21.8925 19.6131C21.7961 19.6131 21.6675 19.6131 21.571 19.6131C21.5067 19.6131 21.4425 19.6131 21.3782 19.581C20.0923 19.4529 18.9993 18.7799 18.2277 17.6904C17.424 16.5689 17.1669 15.1589 17.4883 13.781C18.3242 10.1921 17.1026 5.80204 14.4986 3.07828L12.9556 1.47607L15.1416 1.89265C21.2496 3.07828 26.4574 9.13464 26.4896 15.1269H25.7823L26.4896 15.1589C26.3931 16.4407 25.8466 17.5943 24.8822 18.3954C24.0464 19.1965 22.9855 19.6131 21.8925 19.6131Z" fill="white"/>
<path d="M7.29738 22.8484C5.49713 21.7269 4.95063 19.4197 6.04364 17.6572C6.07579 17.6252 6.10793 17.5611 6.14008 17.5291C7.42597 15.7025 10.0942 15.4782 11.798 16.9843C14.5627 19.4197 19.0312 20.5412 22.8245 19.4838C19.224 23.9059 12.023 25.3479 7.29738 22.8484Z" fill="#002856"/>
<path d="M7.6834 22.2078C11.4768 24.1945 17.0061 23.4254 20.6066 20.6376C17.2633 20.8619 13.7592 19.7403 11.316 17.5613C10.6088 16.9525 9.70868 16.6641 8.80856 16.7602C7.97273 16.8564 7.26549 17.2729 6.78328 17.9459C6.75113 17.9779 6.75113 18.01 6.71898 18.042C6.30107 18.7149 6.17248 19.484 6.33322 20.2531C6.49395 21.0542 6.97616 21.7591 7.6834 22.2078ZM12.6019 24.8033C10.6088 24.8033 8.64782 24.3868 6.97616 23.4895L7.32979 22.8166L6.94401 23.4575C5.88315 22.7845 5.17591 21.7912 4.88659 20.5735C4.62941 19.4199 4.82229 18.2343 5.46524 17.2409C5.49739 17.1768 5.52953 17.1448 5.56168 17.0807C6.26892 16.0553 7.36193 15.4144 8.61567 15.2542C9.93371 15.0939 11.2839 15.5105 12.3126 16.4078C14.9487 18.747 19.1921 19.7083 22.6319 18.747L24.9143 18.1061L23.4356 19.9326C20.8638 23.0729 16.6525 24.8033 12.6019 24.8033Z" fill="white"/>
<path d="M10.1906 2.81883C12.248 1.82546 14.7234 2.59452 15.7521 4.54922C15.7842 4.61331 15.8164 4.64535 15.8164 4.70944C16.8129 6.8564 15.4949 9.38789 13.116 10.0929C9.25833 11.2465 5.72212 14.6752 4.53267 18.6487C2.47524 12.9448 5.20777 5.70281 10.1906 2.81883Z" fill="#E64B38"/>
<path d="M10.544 3.46156C6.39705 5.86487 3.986 11.4726 4.72539 16.3433C6.3649 13.1069 9.45104 10.4472 12.9551 9.38973C13.9517 9.10134 14.7875 8.39636 15.2054 7.46708C15.559 6.66598 15.5912 5.76874 15.2054 4.99968C15.1732 4.96763 15.1732 4.93559 15.1411 4.8715C14.3053 3.26929 12.2479 2.62841 10.544 3.46156ZM4.62895 20.8936L3.88955 18.8748C1.73569 12.9466 4.46821 5.32012 9.8368 2.21183L10.1904 2.82067L9.86895 2.17979C12.28 1.0262 15.1732 1.92343 16.3627 4.19857C16.3948 4.26266 16.427 4.32675 16.4591 4.35879C17.0056 5.51238 17.0056 6.8262 16.4591 8.01183C15.8805 9.2936 14.7232 10.287 13.3409 10.7035C9.64392 11.8251 6.3006 15.1256 5.23974 18.7787L4.62895 20.8936Z" fill="white"/>
</svg>
