<svg width="327" height="86" viewBox="0 0 327 86" fill="none" xmlns="http://www.w3.org/2000/svg">
<g clip-path="url(#clip0)">
<path opacity="0.39" d="M46.5918 75.3337C48.7525 75.3337 50.504 73.5836 50.504 71.4247C50.504 69.2657 48.7525 67.5156 46.5918 67.5156C44.4312 67.5156 42.6797 69.2657 42.6797 71.4247C42.6797 73.5836 44.4312 75.3337 46.5918 75.3337Z" fill="#12284C"/>
<path d="M113.546 3.90946V68.577C113.546 68.6887 113.546 68.8004 113.508 68.9307C113.266 70.9597 111.012 72.5047 108.385 72.5047C108.236 72.5047 108.087 72.4861 107.919 72.4861C106.094 72.3185 104.082 72.3185 101.902 72.3185C91.6189 72.3185 82.8258 73.7705 76.1379 75.9484C69.45 78.1263 64.8486 81.0116 62.9484 83.8597C62.0914 85.1813 60.2844 86.0004 58.3469 86.0004H55.1427C53.1866 86.0004 51.4168 85.1627 50.5413 83.8597C46.7595 78.1822 32.2287 72.3372 11.606 72.3372C9.44505 72.3372 7.45172 72.3372 5.58879 72.5233C5.43975 72.5419 5.29072 72.5419 5.12306 72.5419C2.2914 72.5047 0 70.7363 0 68.5956V4.28176C0 2.28998 1.97471 0.614657 4.60144 0.39128C28.8381 -1.56326 49.9638 3.90946 59.3529 12.4164C67.4753 5.00773 84.4652 0.000371236 104.51 0.0934448H108.683V0.000371235C111.422 0.130674 113.546 1.82461 113.546 3.90946Z" fill="#B5C7D8"/>
<path d="M10.0039 41.3247C12.1646 41.3247 13.9161 39.5745 13.9161 37.4156C13.9161 35.2566 12.1646 33.5065 10.0039 33.5065C7.84333 33.5065 6.0918 35.2566 6.0918 37.4156C6.0918 39.5745 7.84333 41.3247 10.0039 41.3247Z" fill="#12284C"/>
<path d="M26.1182 23.5104C28.2788 23.5104 30.0304 21.7602 30.0304 19.6013C30.0304 17.4424 28.2788 15.6922 26.1182 15.6922C23.9576 15.6922 22.2061 17.4424 22.2061 19.6013C22.2061 21.7602 23.9576 23.5104 26.1182 23.5104Z" fill="#12284C"/>
<path opacity="0.39" d="M26.1182 57.9104C28.2788 57.9104 30.0304 56.1602 30.0304 54.0013C30.0304 51.8424 28.2788 50.0922 26.1182 50.0922C23.9576 50.0922 22.2061 51.8424 22.2061 54.0013C22.2061 56.1602 23.9576 57.9104 26.1182 57.9104Z" fill="#12284C"/>
<path opacity="0.39" d="M46.5918 60.7026C48.7525 60.7026 50.504 58.9524 50.504 56.7935C50.504 54.6346 48.7525 52.8844 46.5918 52.8844C44.4312 52.8844 42.6797 54.6346 42.6797 56.7935C42.6797 58.9524 44.4312 60.7026 46.5918 60.7026Z" fill="#12284C"/>
<path opacity="0.39" d="M46.5918 25.074C48.7525 25.074 50.504 23.3238 50.504 21.1649C50.504 19.006 48.7525 17.2558 46.5918 17.2558C44.4312 17.2558 42.6797 19.006 42.6797 21.1649C42.6797 23.3238 44.4312 25.074 46.5918 25.074Z" fill="#12284C"/>
<path d="M46.5918 39.7238C48.7525 39.7238 50.504 37.9736 50.504 35.8147C50.504 33.6557 48.7525 31.9056 46.5918 31.9056C44.4312 31.9056 42.6797 33.6557 42.6797 35.8147C42.6797 37.9736 44.4312 39.7238 46.5918 39.7238Z" fill="#12284C"/>
<path opacity="0.39" d="M71.8904 16.6788C74.051 16.6788 75.8026 14.9286 75.8026 12.7697C75.8026 10.6108 74.051 8.8606 71.8904 8.8606C69.7298 8.8606 67.9783 10.6108 67.9783 12.7697C67.9783 14.9286 69.7298 16.6788 71.8904 16.6788Z" fill="#12284C"/>
<path opacity="0.39" d="M71.8904 31.3286C74.051 31.3286 75.8026 29.5784 75.8026 27.4195C75.8026 25.2605 74.051 23.5104 71.8904 23.5104C69.7298 23.5104 67.9783 25.2605 67.9783 27.4195C67.9783 29.5784 69.7298 31.3286 71.8904 31.3286Z" fill="#12284C"/>
<path opacity="0.39" d="M71.8904 45.9597C74.051 45.9597 75.8026 44.2096 75.8026 42.0506C75.8026 39.8917 74.051 38.1415 71.8904 38.1415C69.7298 38.1415 67.9783 39.8917 67.9783 42.0506C67.9783 44.2096 69.7298 45.9597 71.8904 45.9597Z" fill="#12284C"/>
<path d="M71.8904 59.1203C74.051 59.1203 75.8026 57.3701 75.8026 55.2112C75.8026 53.0523 74.051 51.3021 71.8904 51.3021C69.7298 51.3021 67.9783 53.0523 67.9783 55.2112C67.9783 57.3701 69.7298 59.1203 71.8904 59.1203Z" fill="#12284C"/>
<path opacity="0.39" d="M71.8904 73.7701C74.051 73.7701 75.8026 72.02 75.8026 69.8611C75.8026 67.7021 74.051 65.952 71.8904 65.952C69.7298 65.952 67.9783 67.7021 67.9783 69.8611C67.9783 72.02 69.7298 73.7701 71.8904 73.7701Z" fill="#12284C"/>
<path d="M71.7041 56.5329L45.8839 36.7268L26.2487 21.1835L10.8609 38.1788L9.14697 36.6338L25.9879 18.019L47.3184 34.9026L72.0954 53.9082L112.428 38.6255L113.247 40.7848L71.7041 56.5329Z" fill="#12284C"/>
<path d="M112.838 59.0645C125.884 59.0645 136.459 48.4968 136.459 35.461C136.459 22.4252 125.884 11.8575 112.838 11.8575C99.7915 11.8575 89.2156 22.4252 89.2156 35.461C89.2156 48.4968 99.7915 59.0645 112.838 59.0645Z" fill="#12284C"/>
<path d="M112.837 54.4108L114.514 53.4056C122.804 51.8234 128.616 43.3537 128.616 35.6658L128.989 23.2684C123.363 23.2684 117.942 22.6913 112.837 21.1091C107.733 22.6913 102.312 23.2684 96.6858 23.2684L97.0584 35.6658C97.0584 43.3537 102.871 51.842 111.161 53.4056L112.837 54.4108Z" fill="white"/>
<path d="M96.9654 23.5476L97.338 35.6658C97.338 42.8138 102.647 51.5255 111.217 53.145L111.273 53.1636L112.856 54.113L114.44 53.1636L114.496 53.145C123.065 51.5255 128.374 42.8138 128.374 35.6658L128.747 23.5476C122.674 23.529 117.476 22.8216 112.875 21.4069C108.236 22.8216 103.039 23.5104 96.9654 23.5476ZM112.838 54.7272L111.068 53.6662C102.256 51.9723 96.7977 43 96.7977 35.6658L96.4065 23.0078H96.6859C102.852 23.0078 108.106 22.3004 112.763 20.8671L112.838 20.8484L112.912 20.8671C117.569 22.319 122.823 23.0078 128.989 23.0078H129.269L128.877 35.6844C128.877 43.0186 123.419 51.9723 114.607 53.6662L112.838 54.7272Z" fill="#172751"/>
<path d="M111.869 51.5441L111.534 51.4883C108.124 50.8368 104.939 48.7705 102.573 45.6433C100.319 42.6835 99.0332 39.035 99.0332 35.6658V35.6285L98.7166 25.1857C104.007 25.0554 108.665 24.3852 112.856 23.1381C117.048 24.3852 121.705 25.0554 126.996 25.1857L126.679 35.6285V35.6658C126.679 39.035 125.394 42.6835 123.14 45.6433C120.774 48.7519 117.588 50.8368 114.179 51.4883L113.844 51.5441L112.875 52.1212L111.869 51.5441Z" fill="#172751"/>
<path d="M126.865 38.793C126.698 41.3991 124.499 43.3536 121.947 43.1861C121.891 43.1861 121.817 43.1675 121.761 43.1675C119.022 42.8696 117.234 40.0961 117.886 37.3597C118.929 32.9108 117.513 27.438 114.16 23.9385C121.053 25.2787 126.828 32.222 126.865 38.793Z" fill="#DB0032"/>
<path d="M116.452 25.4835C118.743 29.0017 119.637 33.5437 118.687 37.5272C118.426 38.6627 118.65 39.854 119.302 40.7848C119.917 41.6597 120.811 42.1995 121.836 42.3112C121.891 42.3112 121.947 42.3298 121.985 42.3298C122.972 42.4043 123.922 42.0692 124.686 41.4177C125.468 40.7476 125.934 39.7982 126.008 38.7372C125.971 33.3389 121.724 27.68 116.452 25.4835ZM122.264 44.0051C122.134 44.0051 122.003 44.0051 121.891 43.9865C121.817 43.9865 121.742 43.9679 121.668 43.9679C120.159 43.8004 118.855 43.0185 117.961 41.7527C117.029 40.4311 116.694 38.7372 117.085 37.1549C118.091 32.9108 116.638 27.7173 113.564 24.5155L111.757 22.6168L114.328 23.1194C121.537 24.5155 127.667 31.7008 127.704 38.793H126.865L127.704 38.8489C127.611 40.3566 126.921 41.7155 125.804 42.7021C124.798 43.5398 123.568 44.0051 122.264 44.0051Z" fill="white"/>
<path d="M105.05 47.8398C102.927 46.5182 102.275 43.7632 103.579 41.7156C103.616 41.6597 103.653 41.6225 103.672 41.5667C105.181 39.4074 108.329 39.1467 110.341 40.9338C113.62 43.8377 118.873 45.1221 123.363 43.8935C119.097 49.087 110.621 50.7996 105.05 47.8398Z" fill="#002856"/>
<path d="M105.498 47.0766C109.987 49.4407 116.508 48.51 120.736 45.1965C116.787 45.4385 112.633 44.1355 109.764 41.5853C108.944 40.8593 107.864 40.5242 106.783 40.6545C105.796 40.7662 104.939 41.2688 104.399 42.0693C104.38 42.1065 104.343 42.1437 104.324 42.1809C103.821 42.9628 103.672 43.8935 103.877 44.8056C104.1 45.7364 104.678 46.5554 105.498 47.0766ZM111.291 50.1853C108.944 50.1853 106.634 49.6827 104.641 48.6216L105.051 47.8398L104.585 48.5844C103.337 47.8026 102.48 46.5926 102.163 45.1779C101.846 43.8004 102.088 42.4043 102.834 41.2316C102.871 41.1758 102.908 41.1013 102.945 41.0455C103.784 39.8355 105.069 39.0723 106.56 38.8861C108.124 38.7 109.726 39.2026 110.919 40.2636C114.03 43.0186 119.041 44.1541 123.121 43.0372L125.804 42.2926L124.052 44.4333C121.053 48.119 116.06 50.1853 111.291 50.1853Z" fill="white"/>
<path d="M108.46 24.1619C110.9 22.9705 113.825 23.8827 115.017 26.1909C115.054 26.2467 115.073 26.3026 115.11 26.3584C116.284 28.89 114.738 31.887 111.925 32.7247C107.379 34.0835 103.188 38.1229 101.809 42.8511C99.3686 36.1498 102.573 27.5684 108.46 24.1619Z" fill="#E64B38"/>
<path d="M108.851 24.9064C103.97 27.7359 101.12 34.3999 101.977 40.1519C103.933 36.3173 107.565 33.1528 111.664 31.9242C112.856 31.5705 113.825 30.7328 114.309 29.6532C114.738 28.6852 114.756 27.6428 114.328 26.7121C114.309 26.6748 114.291 26.619 114.253 26.5631C113.303 24.6831 110.881 23.9385 108.851 24.9064ZM101.902 45.5502L101.027 43.1489C98.4743 36.1311 101.697 27.1216 108.05 23.4359L108.478 24.1618L108.106 23.3986C110.937 22.0212 114.384 23.1008 115.762 25.7999C115.8 25.8744 115.837 25.9302 115.855 26.0047C116.489 27.3822 116.489 28.9272 115.855 30.3233C115.166 31.8497 113.825 33.0225 112.167 33.5064C107.808 34.8095 103.877 38.7372 102.61 43.0558L101.902 45.5502Z" fill="white"/>
<path d="M160.473 54.0014L150.86 36.5221H150.711V54.0014H144.601V18.0191H150.711V33.6369H150.86L160.007 18.0191H166.881L156.3 34.5862L167.552 54.0014H160.473Z" fill="#12284C"/>
<path d="M192.385 54.0013V25.074L186.386 29.5974L183.647 24.8693L192.906 18.0004H198.346V54.0013H192.385Z" fill="#12284C"/>
<path d="M226.104 27.5126C226.104 28.6667 225.955 29.7463 225.675 30.7329C225.377 31.7381 224.986 32.7061 224.483 33.6368C223.98 34.5675 223.384 35.4797 222.732 36.3732C222.061 37.2667 221.39 38.1974 220.664 39.1468L213.231 48.6589H225.657V54.0013H206.226V48.4541L216.659 35.2935C217.683 33.9346 218.484 32.6502 219.099 31.403C219.714 30.1745 220.012 28.9273 220.012 27.7173C220.012 26.3026 219.695 25.0927 219.043 24.1061C218.391 23.1195 217.422 22.6355 216.1 22.6355C214.908 22.6355 213.92 23.0823 213.156 23.9572C212.374 24.8321 211.871 26.1165 211.629 27.7732L205.872 27.2147C206.319 23.9199 207.474 21.4442 209.337 19.7875C211.2 18.1308 213.548 17.2931 216.361 17.2931C217.925 17.2931 219.304 17.5537 220.515 18.0563C221.726 18.5589 222.732 19.2849 223.57 20.197C224.408 21.1091 225.042 22.1888 225.47 23.4546C225.88 24.7017 226.104 26.0606 226.104 27.5126Z" fill="#12284C"/>
<path d="M181.375 36.9688H167.757C167.123 36.9688 166.602 36.4476 166.602 35.8147C166.602 35.1818 167.123 34.6606 167.757 34.6606H181.375C182.008 34.6606 182.53 35.1818 182.53 35.8147C182.53 36.4476 182.027 36.9688 181.375 36.9688Z" fill="#12284C"/>
<path d="M246.726 28.5549C246.726 29.2064 246.633 29.7835 246.428 30.2861C246.242 30.7887 245.963 31.2168 245.627 31.5705C245.292 31.9242 244.882 32.2034 244.435 32.3896C243.969 32.5757 243.485 32.6688 242.982 32.6688C242.237 32.6688 241.547 32.5013 240.914 32.1848C240.281 31.8684 239.778 31.4402 239.386 30.919L240.281 29.8952C240.597 30.3606 241.007 30.7142 241.492 30.9562C241.976 31.1982 242.479 31.3285 242.963 31.3285C243.634 31.3285 244.193 31.0865 244.64 30.6212C245.087 30.1558 245.311 29.4857 245.311 28.6108C245.311 28.2013 245.236 27.829 245.106 27.5125C244.957 27.1961 244.789 26.9168 244.547 26.6562C244.305 26.4142 244.044 26.1909 243.746 25.9861C243.448 25.8 243.131 25.6138 242.796 25.4463C242.386 25.2601 242.013 25.0367 241.659 24.7948C241.305 24.5528 240.989 24.2735 240.709 23.9571C240.43 23.6406 240.225 23.2684 240.057 22.8216C239.889 22.3935 239.815 21.8722 239.815 21.2952C239.815 20.6251 239.927 20.0294 240.132 19.5082C240.337 19.0056 240.616 18.5774 240.97 18.2424C241.324 17.9073 241.715 17.6467 242.162 17.4792C242.609 17.3116 243.075 17.2372 243.559 17.2372C244.23 17.2372 244.826 17.3489 245.366 17.5722C245.907 17.7956 246.354 18.1493 246.708 18.6519L245.814 19.6757C245.534 19.2662 245.217 18.987 244.845 18.8194C244.472 18.6519 244.062 18.5588 243.615 18.5588C243.317 18.5588 243.038 18.6147 242.758 18.7077C242.479 18.8194 242.218 18.9684 241.995 19.1917C241.771 19.4151 241.585 19.6943 241.454 20.048C241.305 20.4017 241.249 20.8112 241.249 21.2766C241.249 21.6861 241.305 22.0584 241.436 22.3562C241.566 22.6541 241.734 22.9333 241.939 23.1753C242.162 23.4173 242.404 23.622 242.684 23.8082C242.963 23.9943 243.261 24.1619 243.578 24.3108C243.969 24.4969 244.342 24.7203 244.733 24.9809C245.106 25.2229 245.46 25.5207 245.758 25.8558C246.056 26.1909 246.298 26.5818 246.484 27.0285C246.633 27.4381 246.726 27.9593 246.726 28.5549Z" fill="#12284C"/>
<path d="M257.848 32.3151V25.316H252.204V32.2965H250.75V17.5909H252.204V24.0316H257.848V17.5909H259.301V32.3151H257.848Z" fill="#12284C"/>
<path d="M264.07 32.3151V17.5909H265.523V32.3151H264.07Z" fill="#12284C"/>
<path d="M270.292 32.3151V17.5909H276.217V18.8753H271.708V24.0316H275.937V25.2788H271.708V30.9935H276.44V32.2965H270.292V32.3151Z" fill="#12284C"/>
<path d="M280.39 32.3151V17.5909H281.843V30.9562H286.053V32.3151H280.39Z" fill="#12284C"/>
<path d="M297.733 24.9809C297.733 26.1909 297.603 27.2519 297.361 28.164C297.118 29.0762 296.746 29.8394 296.28 30.4537C295.814 31.0679 295.237 31.5333 294.585 31.8498C293.933 32.1662 293.188 32.3151 292.387 32.3151H289.22V17.5909H292.405C293.206 17.5909 293.933 17.7398 294.604 18.0562C295.256 18.3727 295.814 18.8381 296.28 19.4524C296.746 20.0666 297.1 20.8485 297.361 21.7792C297.603 22.7099 297.733 23.771 297.733 24.9809ZM296.299 24.9809C296.299 23.9385 296.206 23.0264 296.001 22.2632C295.796 21.5 295.516 20.8485 295.162 20.3459C294.808 19.8433 294.399 19.471 293.914 19.2104C293.43 18.9498 292.927 18.8381 292.368 18.8381H290.654V31.0679H292.368C292.927 31.0679 293.449 30.9376 293.914 30.6956C294.38 30.4537 294.808 30.0627 295.162 29.5601C295.516 29.0575 295.796 28.4246 296.001 27.6614C296.187 26.8982 296.299 26.0047 296.299 24.9809Z" fill="#12284C"/>
<path d="M247.546 42.3856C247.546 43.0558 247.453 43.6701 247.248 44.1913C247.043 44.7125 246.782 45.1406 246.447 45.4943C246.112 45.848 245.72 46.1086 245.292 46.2761C244.845 46.4623 244.398 46.5367 243.932 46.5367H241.771V53.1077H240.318V38.3835H243.802C244.23 38.3835 244.659 38.4393 245.106 38.5696C245.553 38.6999 245.944 38.9047 246.316 39.2211C246.67 39.5376 246.969 39.9471 247.192 40.4497C247.434 40.9709 247.546 41.6224 247.546 42.3856ZM246.112 42.3856C246.112 41.9017 246.056 41.4921 245.925 41.1385C245.795 40.7848 245.627 40.5056 245.404 40.2822C245.18 40.0588 244.938 39.8913 244.64 39.7982C244.342 39.7051 244.044 39.6493 243.708 39.6493H241.752V45.3082H243.727C244.379 45.3082 244.938 45.0662 245.404 44.6008C245.888 44.0982 246.112 43.3722 246.112 42.3856Z" fill="#12284C"/>
<path d="M251.291 53.1077V38.3835H252.744V51.7488H256.954V53.1077H251.291Z" fill="#12284C"/>
<path d="M266.436 53.1077L265.542 49.422H260.996L260.065 53.1077H258.593L262.338 38.3835H264.312L267.964 53.1077H266.436ZM263.325 39.7051H263.251L261.22 48.2679H265.337L263.325 39.7051Z" fill="#12284C"/>
<path d="M274.074 47.0579V53.1077H272.658V47.0579L268.988 38.3835H270.572L273.366 45.5501L276.217 38.3835H277.781L274.074 47.0579Z" fill="#12284C"/>
<path d="M288.456 49.1056C288.456 49.8688 288.326 50.5017 288.083 51.0229C287.841 51.5441 287.524 51.9536 287.152 52.2514C286.779 52.5679 286.369 52.7913 285.922 52.9216C285.475 53.0519 285.028 53.1263 284.618 53.1263H280.855V38.4021H284.19C284.6 38.4021 285.047 38.4579 285.475 38.5696C285.922 38.6813 286.332 38.8675 286.705 39.1467C287.077 39.4259 287.375 39.7796 287.618 40.245C287.86 40.7103 287.972 41.2874 287.972 41.9947C287.972 42.4973 287.916 42.9255 287.785 43.2978C287.655 43.6701 287.506 43.9865 287.32 44.2471C287.115 44.5077 286.891 44.7311 286.649 44.9173C286.388 45.0848 286.127 45.2337 285.866 45.3268V45.364C286.127 45.4199 286.407 45.5315 286.723 45.6991C287.021 45.8666 287.32 46.09 287.562 46.3878C287.823 46.6856 288.027 47.0579 288.195 47.5047C288.363 47.9515 288.456 48.4913 288.456 49.1056ZM286.593 42.1995C286.593 41.7155 286.519 41.306 286.369 40.9709C286.22 40.6359 286.034 40.3753 285.792 40.1705C285.55 39.9657 285.27 39.8354 284.972 39.7424C284.674 39.6679 284.358 39.6121 284.041 39.6121H282.234V44.8056H284.078C284.376 44.8056 284.693 44.7497 284.991 44.6566C285.289 44.5636 285.55 44.396 285.792 44.1913C286.034 43.9679 286.22 43.7073 286.369 43.3722C286.519 43.0744 286.593 42.6649 286.593 42.1995ZM287.003 48.9939C287.003 48.4354 286.928 47.9701 286.761 47.5978C286.593 47.2255 286.388 46.909 286.109 46.667C285.848 46.425 285.55 46.2575 285.214 46.1458C284.898 46.0341 284.581 45.9783 284.264 45.9783H282.197V51.8419H284.264C284.637 51.8419 284.991 51.7861 285.326 51.6744C285.662 51.5627 285.96 51.3952 286.202 51.1532C286.444 50.9112 286.649 50.6134 286.779 50.2597C286.947 49.9246 287.003 49.4965 287.003 48.9939Z" fill="#12284C"/>
<path d="M301.478 45.7363C301.478 46.8905 301.366 47.9329 301.143 48.8822C300.919 49.8316 300.602 50.6506 300.193 51.3208C299.783 51.9909 299.261 52.5307 298.665 52.903C298.069 53.2753 297.398 53.4614 296.634 53.4614C295.871 53.4614 295.181 53.2753 294.585 52.903C293.989 52.5307 293.467 52.0095 293.039 51.3208C292.61 50.6506 292.294 49.8316 292.07 48.8822C291.847 47.9329 291.735 46.8905 291.735 45.7363C291.735 44.6008 291.847 43.5584 292.052 42.6091C292.275 41.6597 292.573 40.8407 293.002 40.1705C293.411 39.5004 293.933 38.9792 294.529 38.6069C295.125 38.2346 295.833 38.0485 296.616 38.0485C297.38 38.0485 298.05 38.2346 298.646 38.6069C299.242 38.9792 299.745 39.5004 300.174 40.1705C300.584 40.8407 300.9 41.6597 301.124 42.6091C301.366 43.5398 301.478 44.5822 301.478 45.7363ZM299.95 45.7363C299.95 44.8428 299.876 44.0238 299.745 43.242C299.615 42.4601 299.391 41.79 299.112 41.2316C298.833 40.6545 298.479 40.2078 298.069 39.8727C297.659 39.5376 297.175 39.3701 296.634 39.3701C296.057 39.3701 295.572 39.5376 295.144 39.8727C294.716 40.2078 294.362 40.6545 294.101 41.2316C293.821 41.8086 293.616 42.4788 293.486 43.242C293.337 44.0238 293.281 44.8428 293.281 45.7363C293.281 46.6298 293.356 47.4489 293.486 48.2307C293.616 49.0125 293.84 49.6827 294.101 50.2783C294.38 50.8554 294.734 51.3208 295.144 51.6558C295.572 51.9909 296.057 52.1584 296.634 52.1584C297.193 52.1584 297.678 51.9909 298.087 51.6558C298.497 51.3208 298.851 50.874 299.131 50.2783C299.41 49.7013 299.615 49.0125 299.745 48.2307C299.894 47.4489 299.95 46.6112 299.95 45.7363Z" fill="#12284C"/>
<path d="M314.742 45.7363C314.742 46.8905 314.63 47.9329 314.407 48.8822C314.183 49.8316 313.866 50.6506 313.456 51.3208C313.047 51.9909 312.525 52.5307 311.929 52.903C311.333 53.2753 310.662 53.4614 309.898 53.4614C309.134 53.4614 308.445 53.2753 307.849 52.903C307.253 52.5307 306.731 52.0095 306.303 51.3208C305.874 50.6506 305.558 49.8316 305.334 48.8822C305.111 47.9329 304.999 46.8905 304.999 45.7363C304.999 44.6008 305.111 43.5584 305.315 42.6091C305.539 41.6597 305.837 40.8407 306.266 40.1705C306.675 39.5004 307.197 38.9792 307.793 38.6069C308.389 38.2346 309.097 38.0485 309.88 38.0485C310.643 38.0485 311.314 38.2346 311.91 38.6069C312.506 38.9792 313.009 39.5004 313.438 40.1705C313.848 40.8407 314.164 41.6597 314.388 42.6091C314.63 43.5398 314.742 44.5822 314.742 45.7363ZM313.214 45.7363C313.214 44.8428 313.14 44.0238 313.009 43.242C312.879 42.4601 312.655 41.79 312.376 41.2316C312.097 40.6545 311.743 40.2078 311.333 39.8727C310.923 39.5376 310.439 39.3701 309.898 39.3701C309.321 39.3701 308.836 39.5376 308.408 39.8727C307.979 40.2078 307.626 40.6545 307.365 41.2316C307.085 41.8086 306.88 42.4788 306.75 43.242C306.601 44.0238 306.545 44.8428 306.545 45.7363C306.545 46.6298 306.62 47.4489 306.75 48.2307C306.88 49.0125 307.104 49.6827 307.365 50.2783C307.644 50.8554 307.998 51.3208 308.408 51.6558C308.836 51.9909 309.321 52.1584 309.898 52.1584C310.457 52.1584 310.942 51.9909 311.351 51.6558C311.761 51.3208 312.115 50.874 312.395 50.2783C312.674 49.6827 312.879 49.0125 313.009 48.2307C313.14 47.4489 313.214 46.6112 313.214 45.7363Z" fill="#12284C"/>
<path d="M325.249 53.1077L320.331 45.5501H320.312V53.1077H318.878V38.3835H320.312V44.9917H320.331L324.951 38.3835H326.627L321.672 45.1779L326.981 53.1077H325.249Z" fill="#12284C"/>
</g>
<defs>
<clipPath id="clip0">
<rect width="327" height="86" fill="white"/>
</clipPath>
</defs>
</svg>
