<svg width="253" height="80" viewBox="0 0 253 80" fill="none" xmlns="https://www.w3.org/2000/svg">
<g clip-path="url(#clip0)">
<path d="M105.426 3.63197V63.7878C105.426 63.8953 105.426 64.0028 105.404 64.1103C105.168 66.0023 103.085 67.4428 100.637 67.4428C100.487 67.4428 100.358 67.4213 100.208 67.4213C98.5117 67.2708 96.6437 67.2708 94.6254 67.2708C85.0705 67.2708 76.9113 68.6253 70.706 70.6462C64.5007 72.6672 60.2279 75.3546 58.4672 77.9991C57.6727 79.2246 55.998 79.9985 54.1943 79.9985H51.2098C49.4062 79.9985 47.7529 79.2246 46.9369 77.9991C43.4156 72.7102 29.9314 67.2708 10.7787 67.2708C8.76042 67.2708 6.93533 67.2708 5.19613 67.4428C5.04583 67.4643 4.917 67.4643 4.7667 67.4643C2.12569 67.4428 0 65.8088 0 63.8094V3.97597C0 2.127 1.84656 0.557532 4.27285 0.364036C26.7751 -1.46343 46.3787 3.63197 55.0961 11.5438C62.6327 4.64246 78.4143 -0.00145724 97.0302 0.0845411H100.917V-0.00145724C103.45 0.106041 105.426 1.69701 105.426 3.63197Z" fill="#E2DBA6"/>
<path d="M131.063 51.5329C130.44 51.0599 129.56 50.8449 128.701 50.8449C127.133 50.8449 126.275 51.6834 126.275 53.0594C126.275 54.5858 127.047 55.3383 128.722 56.0908C130.891 57.0583 131.814 58.4558 131.814 60.5842C131.814 63.2932 130.247 64.7981 127.391 64.7981C126.403 64.7981 125.308 64.5831 124.449 64.1746L124.6 62.3687C125.416 62.9277 126.382 63.1857 127.434 63.1857C129.044 63.1857 129.946 62.2827 129.946 60.6487C129.946 59.1437 129.281 58.2408 127.649 57.5743C125.308 56.6283 124.385 55.1448 124.385 53.1024C124.385 50.7374 125.931 49.2324 128.529 49.2324C129.495 49.2324 130.483 49.4474 131.192 49.7914L131.063 51.5329Z" fill="#12284C"/>
<path d="M134.004 49.4922H135.851V55.7271H141.133V49.4922H142.979V64.5419H141.133V57.318H135.851V64.5419H134.004V49.4922Z" fill="#12284C"/>
<path d="M147.811 49.4922V64.5419H145.964V49.4922H147.811Z" fill="#12284C"/>
<path d="M150.838 49.4922H158.096V51.0832H152.685V56.0066H157.709V57.5975H152.685V62.9509H158.246V64.5419H150.838V49.4922Z" fill="#12284C"/>
<path d="M160.414 49.4922H162.261V62.9724H168.123V64.5419H160.414V49.4922Z" fill="#12284C"/>
<path d="M172.911 64.5419H169.776V49.4922H172.911C176.862 49.4922 178.923 51.8141 178.923 57.017C178.923 62.2199 176.862 64.5419 172.911 64.5419ZM172.911 51.0832H171.644V62.9509H172.911C175.852 62.9509 177.055 61.188 177.055 57.017C177.055 52.8461 175.831 51.0832 172.911 51.0832Z" fill="#12284C"/>
<path d="M189.337 58.866H187.662V64.5419H185.815V49.4922H189.337C191.978 49.4922 193.738 51.0832 193.738 54.1791C193.738 57.275 191.978 58.866 189.337 58.866ZM189.229 51.0832H187.662V57.2965H189.229C190.926 57.2965 191.87 56.2861 191.87 54.1791C191.87 52.0721 190.926 51.0832 189.229 51.0832Z" fill="#12284C"/>
<path d="M195.692 48.8457H197.474V64.5404H195.692V48.8457Z" fill="#12284C"/>
<path d="M199.192 61.2733C199.192 58.9514 200.652 57.6614 203.121 57.6614H204.775V56.7799C204.775 55.1244 204.174 54.6085 202.821 54.6085C201.898 54.6085 200.931 54.8665 200.137 55.3394L200.008 53.856C200.781 53.426 201.962 53.1465 202.95 53.1465C205.376 53.1465 206.557 54.3075 206.557 56.7154V64.5413H204.775V63.7458C204.259 64.4123 203.401 64.7993 202.391 64.7993C200.631 64.7993 199.192 63.6168 199.192 61.2733ZM204.753 62.3268V59.0804H203.164C201.704 59.0804 200.974 59.8114 200.974 61.2733C200.974 62.6708 201.704 63.3588 202.821 63.3588C203.615 63.3588 204.302 63.0363 204.753 62.3268Z" fill="#12284C"/>
<path d="M210.98 64.5391L207.63 53.4023H209.477L211.86 61.8947L214.222 53.4023H216.069L211.624 68.6886H209.778L210.98 64.5391Z" fill="#12284C"/>
<path d="M221.372 64.7984C220.449 64.7984 219.655 64.3899 219.118 63.7449V64.5404H217.336V48.8457H219.118V54.1991C219.655 53.5541 220.449 53.1456 221.372 53.1456C223.648 53.1456 225.087 55.1236 225.087 58.972C225.087 62.8204 223.648 64.7984 221.372 64.7984ZM220.921 54.6076C220.191 54.6076 219.526 54.9946 219.118 55.6181V62.326C219.526 62.9494 220.191 63.3364 220.921 63.3364C222.403 63.3364 223.283 62.025 223.283 58.972C223.283 55.9191 222.403 54.6076 220.921 54.6076Z" fill="#12284C"/>
<path d="M234.534 58.9729C234.534 62.9503 232.859 64.7993 230.39 64.7993C227.921 64.7993 226.246 62.9503 226.246 58.9729C226.246 54.9955 227.921 53.1465 230.39 53.1465C232.859 53.1465 234.534 54.9955 234.534 58.9729ZM232.731 58.9729C232.731 55.8554 231.764 54.6085 230.39 54.6085C229.016 54.6085 228.05 55.8554 228.05 58.9729C228.05 62.0903 229.016 63.3373 230.39 63.3373C231.764 63.3373 232.731 62.0903 232.731 58.9729Z" fill="#12284C"/>
<path d="M243.982 58.9729C243.982 62.9503 242.307 64.7993 239.838 64.7993C237.369 64.7993 235.694 62.9503 235.694 58.9729C235.694 54.9955 237.369 53.1465 239.838 53.1465C242.307 53.1465 243.982 54.9955 243.982 58.9729ZM242.178 58.9729C242.178 55.8554 241.212 54.6085 239.838 54.6085C238.464 54.6085 237.498 55.8554 237.498 58.9729C237.498 62.0903 238.464 63.3373 239.838 63.3373C241.212 63.3373 242.178 62.0903 242.178 58.9729Z" fill="#12284C"/>
<path d="M247.46 48.8457V58.026L250.66 53.4036H252.678L249.157 58.3485L253 64.5404H250.982L247.46 58.6925V64.5404H245.678V48.8457H247.46Z" fill="#12284C"/>
<path d="M165.439 15.3709L162.476 11.501L169.883 4.57812H175.444V36.4835H169.175V12.017L165.439 15.3709Z" fill="#12284C"/>
<path d="M187.426 9.22242C185.429 9.22242 183.475 9.82441 182.015 10.7704L181.736 5.58899C183.518 4.686 185.923 4.04102 188.478 4.04102C194.533 4.04102 197.861 7.37345 197.861 13.2858C197.861 19.6712 193.03 26.6371 188.8 31.367H197.818V36.4624H181.199V31.9045C185.579 27.1101 191.398 19.5637 191.484 13.5868C191.462 10.8134 190.067 9.22242 187.426 9.22242Z" fill="#12284C"/>
<path d="M143.645 5.86719L135.916 20.8094L145.063 37.7511H137.87L129.989 21.7124V37.7511H123.72V5.86719H129.989V19.9064L136.817 5.86719H143.645Z" fill="#12284C"/>
<path d="M81.5493 37.3009L24.4348 20.5312" stroke="#12284C" stroke-miterlimit="10"/>
<path d="M24.4348 49.7275L81.5493 37.3008" stroke="#12284C" stroke-miterlimit="10"/>
<path d="M89.1932 49.622L96.7727 36.4858L89.2576 23.457L82.7947 36.7223C83.2026 38.0768 86.2731 44.1611 89.1932 49.622Z" fill="#68B6E5"/>
<path opacity="0.51" d="M88.8708 50.1557L88.892 50.1133L88.8496 50.1557H88.8708Z" fill="#ED1C24"/>
<path d="M88.0552 22.8105H73.111L65.553 35.9253H81.6352L88.0552 22.8105Z" fill="#476B89"/>
<path d="M65.6819 37.3008L73.0896 50.1575H87.905C86.3376 47.2121 82.4297 39.7947 81.5494 37.3008H65.6819Z" fill="#20558A"/>
<path d="M82.7733 36.7208C83.2027 38.0753 86.2517 44.1596 89.1718 49.6205L88.8927 50.1365L88.8282 50.158H87.905C86.3375 47.2341 82.4297 39.7952 81.5494 37.3013H65.6818L65.2095 36.4843L65.5315 35.9253H81.6353L88.0553 22.8105H88.8712L89.2362 23.4555L82.7733 36.7208Z" fill="#E2DBA6"/>
<path d="M24.4348 59.6801C29.9252 59.6801 34.3761 55.2234 34.3761 49.7258C34.3761 44.2282 29.9252 39.7715 24.4348 39.7715C18.9443 39.7715 14.4934 44.2282 14.4934 49.7258C14.4934 55.2234 18.9443 59.6801 24.4348 59.6801Z" fill="#20558A"/>
<path d="M37.8753 15.8909L21.8125 9.10156L15.032 25.1853L31.0949 31.9746L37.8753 15.8909Z" fill="#476B89"/>
<path d="M159.298 23.4551L149.765 17.9512V28.959L159.298 23.4551Z" fill="#68B6E5"/>
</g>
<defs>
<clipPath id="clip0">
<rect width="253" height="80" fill="white"/>
</clipPath>
</defs>
</svg>
